Coordinates
version=1
nRows=9
nColumns=36
inDegrees=yes

Units are S.I. units (second, meters, Newtons, ...)
If the header above contains a line with 'inDegrees', this indicates whether rotational values are in degrees (yes) or radians (no).

endheader
time	pelvis_tilt	pelvis_list	pelvis_rotation	pelvis_tx	pelvis_ty	pelvis_tz	hip_flexion_r	hip_adduction_r	hip_rotation_r	knee_angle_r	knee_angle_r_beta	ankle_angle_r	subtalar_angle_r	mtp_angle_r	hip_flexion_l	hip_adduction_l	hip_rotation_l	knee_angle_l	knee_angle_l_beta	ankle_angle_l	subtalar_angle_l	mtp_angle_l	lumbar_extension	lumbar_bending	lumbar_rotation	arm_flex_r	arm_add_r	arm_rot_r	elbow_flex_r	pro_sup_r	arm_flex_l	arm_add_l	arm_rot_l	elbow_flex_l	pro_sup_l
      1.20000000	    -36.10039885	     -2.79946175	      1.25525416	     -0.94338889	      1.07302775	     -0.08598745	     68.78285759	     -1.34037602	     -1.13362599	     64.37442109	      1.12354560	     26.80817759	    -22.43394243	     -7.49999987	     69.83234703	     -2.71321289	      2.94288212	     65.11890213	      1.13653925	     32.65777588	     -7.23486463	     -7.49999987	    -24.67023151	      3.82549897	     -1.41796958	      1.11886992	     -8.80466307	     -4.96197432	     21.06210756	     74.38494026	     -7.65605829	     -7.14645146	     -6.33805725	     17.35686385	     73.65740426
      1.20416670	    -36.27527994	     -3.11677692	      0.80960101	     -0.94317679	      1.07323448	     -0.08676690	     69.18218661	     -0.88564749	     -1.34116603	     64.73050933	      1.12976051	     26.97080291	    -22.21855413	     -7.49999987	     70.57583661	     -3.31569710	      2.72711450	     66.13789443	      1.15432402	     33.02081218	     -7.11332940	     -7.49999987	    -24.93095175	      4.05701582	     -0.56137000	      2.15243376	     -9.12602283	     -3.57442858	     20.27093477	     74.15786099	     -6.19248425	     -6.99619181	     -5.10879886	     16.35234193	     73.39669769
      1.20833330	    -35.96257329	     -3.11685477	      0.41204776	     -0.94351235	      1.07285769	     -0.08598591	     69.07049503	     -0.61931752	     -1.51813672	     65.06466154	      1.13559257	     27.48602457	    -21.89241349	     -7.49999987	     70.46057984	     -3.70467655	      2.40490057	     66.68288970	      1.16383598	     32.95654486	     -7.72019467	     -7.49999987	    -25.38952144	      4.05999471	     -0.31277594	      3.69012512	     -9.93915872	      2.54148990	     18.63108726	     74.22628372	     -4.74599214	     -7.39430820	      0.81418184	     14.48301419	     74.10242405
      1.21250000	    -36.05855203	     -3.08307826	      0.12508760	     -0.94928884	      1.06916365	     -0.09042728	     69.64751162	     -0.64487438	     -1.47521593	     65.67466183	      1.14623908	     27.49199980	    -21.92228868	     -7.49999987	     71.32012907	     -3.74665695	      2.19276686	     67.84822352	      1.18417489	     33.11671477	     -8.29660778	     -7.49999987	    -25.98346601	      4.02632728	     -0.10151279	      4.77808358	    -10.12012602	      2.57224129	     18.87082194	     74.19073557	     -3.86555803	     -7.33736051	      0.89494572	     14.75832899	     74.09565476
      1.21666670	    -35.90428652	     -3.08070618	     -0.27694923	     -0.94344049	      1.06880205	     -0.08523709	     69.56732543	     -0.27897331	     -1.43485260	     65.98452708	      1.15164725	     28.01581017	    -21.44496527	     -7.49999987	     71.31037796	     -4.03702272	      2.26452643	     68.33879425	      1.19273697	     32.68800752	     -9.52310592	     -7.49999987	    -26.34807449	      3.85210913	      0.63882907	      5.70656904	    -10.21953326	      3.38513327	     18.63013119	     74.08327377	     -2.88757464	     -7.42702597	      1.62716953	     14.95981487	     74.08397745
      1.22083330	    -35.78227082	     -2.78145018	     -0.63572278	     -0.94318230	      1.06518671	     -0.08541970	     70.01643557	     -0.13789818	     -1.01512538	     66.89133544	      1.16747404	     27.73645079	    -21.66134621	     -7.49999987	     71.48675618	     -4.18905105	      2.05381178	     68.98077978	      1.20394173	     33.16888246	     -9.14121919	     -7.49999987	    -26.65737527	      3.37671860	      0.49211370	      7.00849197	    -10.13140750	      4.76584773	     18.09695697	     73.52525362	     -2.01680705	     -7.59063379	      2.94013987	     14.39401571	     73.65653794
      1.22500000	    -35.41028789	     -2.63603104	     -0.77251531	     -0.94290222	      1.06866771	     -0.08453826	     69.92313890	     -0.01654888	     -0.90306277	     67.25607785	      1.17384000	     27.40237141	    -21.50313431	     -7.49999987	     71.08668927	     -4.06158643	      2.37189221	     69.12557908	      1.20646895	     32.90003654	     -9.69063362	     -7.49999987	    -27.33517129	      3.09206542	      0.22202035	      9.02951043	    -10.53831036	     14.21670429	     15.84930772	     69.13647987	     -0.17097925	     -8.30288767	     12.30737172	     12.60455109	     71.61604269
      1.22916670	    -35.23923350	     -2.72280897	     -0.13585718	     -0.93775856	      1.06117990	     -0.08134829	     69.91242425	     -0.25357975	     -1.13499327	     68.04648954	      1.18763529	     27.68031047	    -22.03234455	     -7.49999987	     70.99419822	     -3.91203039	      2.46104385	     69.57123770	      1.21424716	     32.93211072	     -9.48449782	     -7.49999987	    -27.66366049	      3.24060454	     -0.03880683	      9.44015039	    -10.24268532	     14.32046325	     15.99480264	     69.04575755	      1.11825992	     -8.66769994	     12.33279937	     12.72610702	     71.53672204
      1.23333330	    -35.23499745	     -2.70417722	      0.07046115	     -0.93857232	      1.05723301	     -0.08977257	     70.01737225	     -0.70829151	     -1.19534713	     68.81879260	      1.20111452	     27.87132152	    -22.19699928	     -7.49999987	     71.46041929	     -3.36676419	      2.66539227	     70.49931138	      1.23044510	     33.56727688	     -9.24555639	     -7.49999987	    -28.09002275	      3.45852798	     -0.06320206	     11.08674490	    -10.67109921	     23.23575245	     14.36304883	     57.83784172	      3.85677187	     -9.08174195	     24.34314449	     10.29020001	     62.45238183
